<?xml version="1.0" encoding="UTF-8" standalone="no"?>
<svg width="302px" height="254px" viewBox="0 0 302 254" version="1.1" xmlns="http://www.w3.org/2000/svg" xmlns:xlink="http://www.w3.org/1999/xlink">
    <!-- Generator: Sketch 3.6.1 (26313) - http://www.bohemiancoding.com/sketch -->
    <title>smartCrawl_sprite</title>
    <desc>Created with Sketch.</desc>
    <defs>
        <path id="path-1" d="M0,0.237 L16,0.237 L16,17 L0,17"></path>
        <rect id="path-3" x="0" y="0" width="139" height="204"></rect>
        <path id="path-5" d="M0,0.0615191424 L136.998478,0.0615191424 L136.998478,332 L0,332"></path>
        <path id="path-7" d="M0,0.0615191424 L136.998478,0.0615191424 L136.998478,332 L0,332"></path>
    </defs>
    <g id="Page-1" stroke="none" stroke-width="1" fill="none" fill-rule="evenodd">
        <g id="smartCrawl_sprite">
            <path d="M32,34 C33.1045695,34 34,33.1045695 34,32 C34,30.8954305 33.1045695,30 32,30 C30.8954305,30 30,30.8954305 30,32 C30,33.1045695 30.8954305,34 32,34 Z M35,32 C35,31.4477153 35.4474894,31 35.9985023,31 L47.0014977,31 C47.5529553,31 48,31.4438648 48,32 C48,32.5522847 47.5525106,33 47.0014977,33 L35.9985023,33 C35.4470447,33 35,32.5561352 35,32 Z M32,40 C33.1045695,40 34,39.1045695 34,38 C34,36.8954305 33.1045695,36 32,36 C30.8954305,36 30,36.8954305 30,38 C30,39.1045695 30.8954305,40 32,40 Z M35,38 C35,37.4477153 35.4474894,37 35.9985023,37 L47.0014977,37 C47.5529553,37 48,37.4438648 48,38 C48,38.5522847 47.5525106,39 47.0014977,39 L35.9985023,39 C35.4470447,39 35,38.5561352 35,38 Z M32,46 C33.1045695,46 34,45.1045695 34,44 C34,42.8954305 33.1045695,42 32,42 C30.8954305,42 30,42.8954305 30,44 C30,45.1045695 30.8954305,46 32,46 Z M35,44 C35,43.4477153 35.4474894,43 35.9985023,43 L47.0014977,43 C47.5529553,43 48,43.4438648 48,44 C48,44.5522847 47.5525106,45 47.0014977,45 L35.9985023,45 C35.4470447,45 35,44.5561352 35,44 Z" id="Oval-74" fill="#808080"></path>
            <g id="Group" transform="translate(30.000000, 76.000000)" fill="#808080">
                <g id="Oval-54-+-Rectangle-539">
                    <path d="M8,5.73243561 L8,4 C8,2.8954305 7.1045695,2 6,2 C4.8954305,2 4,2.8954305 4,4 L4,7 L4,7 L6,7 L3,11 L0,7 L2.6770878,7 L2,7 L2,4 C2,1.790861 3.790861,0 6,0 C8.209139,0 10,1.790861 10,4 L10,12.2324356 L10,13.9648712 C10,15.0694407 10.8954305,15.9648712 12,15.9648712 C13.1045695,15.9648712 14,15.0694407 14,13.9648712 L14,11 L14,11 L12,11 L15,7 L18,11 L15.3425518,11 L16,11 L15.999849,14 C15.980984,16.192964 14.1974176,17.9648712 12,17.9648712 C9.80258244,17.9648712 8.01901598,16.192964 8.00015105,14 L8,5.73243561 Z" id="Oval-54"></path>
                </g>
            </g>
            <g id="Oval-23-+-Rectangle-275" transform="translate(32.000000, 124.000000)">
                <circle id="Oval-23" fill="#BE1E2D" cx="7" cy="7" r="7"></circle>
                <path d="M7.8890873,7.18198052 L10.363961,4.70710678 L9.65685425,4 L7.18198052,6.47487373 L4.70710678,4 L4,4.70710678 L6.47487373,7.18198052 L4,9.65685425 L4.70710678,10.363961 L7.18198052,7.8890873 L9.65685425,10.363961 L10.363961,9.65685425 L7.8890873,7.18198052 Z" id="Rectangle-275" fill="#FFFFFF"></path>
            </g>
            <g id="Page-1" transform="translate(31.000000, 168.000000)">
                <mask id="mask-2" fill="white">
                    <use xlink:href="#path-1"></use>
                </mask>
                <g id="Clip-2"></g>
                <path d="M16,11.151 L16,0.236 L14.241,1.607 L14.241,11.151 C14.241,11.709 13.836,12.163 13.341,12.163 C12.843,12.163 12.441,11.712 12.441,11.151 L12.445,6.085 C12.445,4.432 11.253,3.095 9.783,3.095 C8.312,3.095 7.12,4.432 7.12,6.085 L7.12,11.151 C7.12,11.709 6.715,12.163 6.221,12.163 C5.723,12.163 5.321,11.712 5.321,11.151 L5.324,6.085 C5.324,4.432 4.133,3.095 2.662,3.095 C1.192,3.095 0,4.432 0,6.085 L0,17 L1.759,15.629 L1.759,6.085 C1.759,5.528 2.164,5.073 2.659,5.073 C3.157,5.073 3.559,5.524 3.559,6.085 L3.555,11.151 C3.555,12.804 4.747,14.142 6.217,14.142 C7.688,14.142 8.88,12.804 8.88,11.151 L8.883,6.085 C8.883,5.528 9.288,5.073 9.783,5.073 C10.277,5.073 10.682,5.524 10.682,6.085 L10.679,11.151 C10.679,12.804 11.871,14.142 13.341,14.142 C14.812,14.142 16.003,12.801 16,11.151" id="Fill-1" fill="#FFFFFF" mask="url(#mask-2)"></path>
            </g>
            <rect id="Rectangle-7" fill="#D8D8D8" x="0" y="0" width="1" height="1"></rect>
            <rect id="Rectangle-7" fill="#D8D8D8" x="301" y="253" width="1" height="1"></rect>
            <g id="Group-2" transform="translate(119.000000, 8.000000)">
                <mask id="mask-4" fill="white">
                    <use xlink:href="#path-3"></use>
                </mask>
                <use id="Rectangle-752" xlink:href="#path-3"></use>
                <g id="devman-thumbsup" mask="url(#mask-4)">
                    <g transform="translate(10.000000, 14.000000)">
                        <path d="M32.7258496,69.5773366 C32.7258496,69.5773366 27.6380756,91.4201911 29.1374644,100.344026 C30.0913904,99.1451651 32.4077052,105.005245 34.315557,107.402966 C36.2234089,109.800179 39.0339385,111.930978 39.0339385,111.930978 C39.0339385,111.930978 40.9077941,108.232712 46.0249978,109.34209 C51.1422015,110.451977 77.5441311,108.734525 79.164283,107.935793 C80.7839274,107.136553 86.6531089,113.662666 86.6531089,113.662666 C86.6531089,113.662666 86.3709904,111.265453 88.0063644,110.599419 C89.6417385,109.933386 91.6855756,110.865833 91.6855756,110.865833 C91.6855756,110.865833 93.472157,105.143027 93.6766422,102.874445 C93.8811274,100.605863 93.6766422,96.3630763 93.6766422,96.3630763 L32.7258496,69.5773366 Z" id="Fill-1" fill="#414042"></path>
                        <path d="M80.6457096,78.035456 L38.869843,78.035456 C38.7338578,74.9818695 38.7500948,71.3090242 38.9829948,66.8938818 C40.2855096,42.3462187 42.3811022,34.6939492 53.1071874,27.3477501 C63.8327652,20.0020594 70.0170467,15.1664515 70.0170467,15.1664515 C73.6982874,16.1456735 78.7383652,25.5118358 77.152717,32.1233642 C73.0751911,47.7334652 74.3213837,60.0988129 77.0395652,67.5675418 C77.988417,70.1777838 79.3183319,74.0712845 80.6457096,78.035456" id="Fill-3" fill="#231F1F"></path>
                        <path d="M42.9219478,117.806616 C42.9219478,128.081329 32.5591663,146.76027 29.7694404,152.725084 C26.979207,158.689391 21.9310107,170.61902 26.4479515,209.546401 C25.7837552,218.493623 26.18207,222.888937 26.18207,222.888937 C26.18207,222.888937 22.9935219,229.952453 22.1963848,248.160086 C21.3992478,266.368227 26.979207,302.313709 26.979207,302.313709 C26.979207,302.313709 25.1195589,302.941611 24.8536774,305.452711 C24.5877959,307.964319 24.3224219,310.318824 24.3224219,310.318824 C24.3224219,310.318824 20.6021107,317.696037 19.9379144,319.579743 C19.2737181,321.463449 26.713833,325.073758 28.0422256,325.073758 C29.3706181,325.073758 30.9648922,327.428263 33.8875589,327.114058 C36.810733,326.800361 38.405007,322.876355 38.6703811,321.620551 C38.9362626,320.364747 38.9362626,317.225237 39.6004589,314.714138 C40.2646552,312.20253 39.9992811,310.475926 38.9362626,307.964319 C37.8732441,305.452711 37.2090478,304.825317 36.9436737,303.88321 C36.6777922,302.941611 37.60787,301.057905 37.2090478,299.174199 C36.810733,297.290493 36.4119107,299.331302 35.8806552,294.465188 C35.3493996,289.599583 38.5379478,265.897427 42.2577515,255.067008 C45.9775552,244.23608 49.4319848,234.347259 45.7116737,217.865721 C46.1104959,215.668319 45.8446144,212.843014 45.8446144,212.843014 C45.8446144,212.843014 56.8715922,192.594064 59.3959441,169.206113 C61.9202959,145.818162 61.2560996,117.806616 61.2560996,117.806616 L42.9219478,117.806616 Z" id="Fill-5" fill="#231F1F"></path>
                        <path d="M59.5141193,169.154102 L60.2960341,169.462206 C61.7487415,170.035198 63.4003526,169.444411 64.1634933,168.079296 L71.604623,154.765232 L53.2760526,146.91722 L53.2760526,159.978089 C53.2760526,164.030218 55.7506785,167.670524 59.5141193,169.154102" id="Fill-7" fill="#231F1F"></path>
                        <g id="Group-11" stroke-width="1" fill="none">
                            <mask id="mask-6" fill="white">
                                <use xlink:href="#path-5"></use>
                            </mask>
                            <g id="Clip-10"></g>
                            <path d="M136.849655,319.57898 C136.052518,317.382086 128.348044,310.317553 127.9477,307.963556 C127.550907,305.610067 128.612403,304.668469 128.083685,302.942374 C127.550907,301.216279 125.160003,299.643727 124.4953,297.290239 C123.830596,294.936242 112.405811,242.038423 110.4117,234.345988 C108.417589,226.657112 106.159118,223.358466 105.6304,219.749681 C105.243755,217.134355 103.813881,204.54276 101.234729,190.936352 C100.758274,188.439997 100.246807,185.911611 99.7003293,183.40102 C99.6967774,183.390851 99.6932256,183.387292 99.6932256,183.387292 C99.4461181,182.267746 99.191907,181.148708 98.9275478,180.042888 C98.5657663,178.501859 98.1862256,176.978116 97.7899404,175.485387 C93.008133,157.433332 86.4970811,149.113504 86.1002885,142.99362 C85.6999441,136.870686 83.4414737,121.332273 83.4414737,121.332273 L61.3093774,121.332273 C61.2860367,119.090637 61.2560996,117.806361 61.2560996,117.806361 L42.9219478,117.806361 C42.9219478,128.081075 32.5591663,146.760015 29.7694404,152.72483 C26.979207,158.689645 21.9310107,170.619274 26.4479515,209.546655 C25.7837552,218.493877 26.18207,222.888683 26.18207,222.888683 C26.18207,222.888683 22.9935219,229.952199 22.1963848,248.16034 C21.3992478,266.368481 26.979207,302.313455 26.979207,302.313455 C26.979207,302.313455 25.1195589,302.941357 24.8536774,305.452965 C24.5877959,307.964573 24.3224219,310.319078 24.3224219,310.319078 C24.3224219,310.319078 20.6021107,317.696291 19.9379144,319.579997 C19.2737181,321.463703 26.713833,325.073504 28.0422256,325.073504 C29.3706181,325.073504 30.9648922,327.428009 33.8875589,327.114312 C36.810733,326.800107 38.405007,322.876101 38.6703811,321.620297 C38.9362626,320.364493 38.9362626,317.225492 39.6004589,314.713884 C40.2646552,312.202276 39.9992811,310.475672 38.9362626,307.964573 C37.8732441,305.452965 37.2090478,304.825063 36.9436737,303.883464 C36.6777922,302.941357 37.60787,301.057651 37.2090478,299.174453 C36.810733,297.290747 36.4119107,299.331047 35.8806552,294.465443 C35.3493996,289.599329 38.5379478,265.897681 42.2577515,255.066753 C45.9775552,244.236334 49.4319848,234.347513 45.7116737,217.865975 C46.1104959,215.668064 45.8446144,212.84276 45.8446144,212.84276 C45.8446144,212.84276 56.8715922,192.594319 59.3959441,169.206368 C59.3994959,169.17332 59.4030478,169.139764 59.4065996,169.106717 C59.443133,169.121969 59.4776367,169.139764 59.51417,169.154 L60.2960848,169.462104 C60.530507,169.554637 60.7705107,169.613614 61.0110219,169.64717 C61.0110219,169.648695 61.0115293,169.649712 61.0115293,169.651237 C61.2256552,170.919243 61.4793589,172.27724 61.7807589,173.725737 C61.7914144,173.777087 61.8010552,173.826913 61.8117107,173.878772 C61.8675256,174.14366 61.9263848,174.414649 61.9847367,174.685639 C62.0131515,174.81732 62.0405515,174.946459 62.0699811,175.079666 C62.1232589,175.322184 62.1795811,175.570294 62.2359033,175.818404 C62.2734515,175.984658 62.3104922,176.150404 62.3495626,176.319201 C62.4038552,176.554092 62.4601774,176.792542 62.517007,177.031501 C62.5616589,177.220634 62.6063107,177.409767 62.6529922,177.601443 C62.7082996,177.83125 62.7656367,178.063599 62.8234811,178.296965 C62.8752367,178.505926 62.9274996,178.715905 62.9812848,178.927917 C63.0386219,179.155691 63.0974811,179.384989 63.1573552,179.616322 C63.215707,179.841044 63.2745663,180.067292 63.3349478,180.295574 C63.3948219,180.522331 63.4552033,180.750613 63.5176144,180.980928 C63.5820552,181.22192 63.6485256,181.464946 63.7160107,181.709498 C63.7779144,181.935746 63.840833,182.161994 63.9047663,182.391292 C63.9763107,182.647029 64.0503922,182.906325 64.1249811,183.166129 C64.1894219,183.392377 64.25437,183.618625 64.3208404,183.847923 C64.4005033,184.120946 64.4827033,184.398037 64.5654107,184.675636 C64.6313737,184.898325 64.6968293,185.119997 64.7653293,185.345737 C64.8551404,185.643672 64.9490107,185.947201 65.0423737,186.249712 C65.1083367,186.462741 65.17227,186.673228 65.2397552,186.888291 C65.3468181,187.230968 65.4589552,187.579746 65.5705848,187.928524 C65.6289367,188.111047 65.6852589,188.290012 65.7446256,188.474061 C65.9186663,189.009939 66.0967663,189.552426 66.2814626,190.103047 C66.9289144,192.035054 67.6453737,194.057559 68.435407,196.170564 C68.4775219,196.285467 68.5191293,196.400371 68.5642885,196.519342 C69.1280181,198.01868 69.6881959,199.427519 70.2519256,200.762637 L70.2519256,200.766196 C71.3240774,203.325596 72.3891256,205.589093 73.4257589,207.593804 C73.4293107,207.597363 73.4293107,207.600922 73.4293107,207.604481 C79.8952033,220.105069 85.3031515,222.476352 85.3031515,222.476352 C85.3031515,222.476352 86.8969181,228.79147 88.6231181,231.253253 C89.6881663,238.272536 89.9525256,248.946361 92.2109959,255.222839 C94.4699737,261.502876 110.812044,283.321326 113.334874,291.641155 C115.858211,299.957424 117.587455,303.413173 116.65484,306.237461 C115.725777,309.062257 115.193507,310.63125 115.993689,312.203801 C116.790826,313.773302 116.522914,315.185191 117.587455,316.59759 C118.648951,318.009988 117.852322,324.502545 117.587455,327.142276 C117.319544,329.782006 123.430759,331.664695 124.892092,331.9789 C126.353933,332.292597 129.277107,329.056487 132.200281,327.142276 C135.123455,325.231623 137.646792,321.775874 136.849655,319.57898" id="Fill-9" fill="#231F1F" mask="url(#mask-6)"></path>
                        </g>
                        <path d="M84.7708811,104.849362 C82.9127552,111.443096 83.4414737,121.332425 83.4414737,121.332425 L56.3388144,135.45844 L42.92347,117.807022 C42.92347,117.807022 42.126333,95.4308325 36.0120737,86.4866609 C30.4336367,76.9115369 32.6017885,61.0070591 36.4575774,61.0070591 L47.7778367,61.0070591 L60.5325367,61.0070591 C60.5325367,61.0070591 70.1235515,61.46769 77.4317404,61.6385201 C81.4336626,61.7290193 84.7536293,61.7325783 85.4355848,61.5266671 C89.7784848,60.2225629 94.734333,66.5514083 94.8698107,72.2004925 C95.0022441,77.8531357 86.6325589,98.2591877 84.7708811,104.849362" id="Fill-12" fill="#231F1F"></path>
                        <path d="M55.853733,102.747289 C60.4919441,100.038921 61.7432107,93.351638 61.558007,92.1258309 C54.3030959,97.0946456 41.2079256,101.484367 41.2079256,101.484367 L41.2434441,102.25361 C41.4093663,103.21758 41.5590515,104.172906 41.6940219,105.109421 C43.5105404,105.185175 51.6833515,105.182125 55.853733,102.747289" id="Fill-14" fill="#1F1B1C"></path>
                        <path d="M85.6837578,99.8844625 L64.370617,93.8952435 C64.370617,93.8952435 65.5493244,102.173381 75.0469763,104.505008 C79.7648504,105.662686 82.6991874,105.563035 84.7683948,104.857853 C84.7694096,104.854802 84.769917,104.85226 84.7709319,104.84921 C85.0763911,103.767286 85.5584281,102.311164 86.148543,100.61049 L85.6837578,99.8844625 Z" id="Fill-16" fill="#1F1B1C"></path>
                        <path d="M45.1747859,71.1244668 C39.7851044,71.1244668 33.4029341,73.3844055 31.8431637,89.9589844 C30.2828859,106.533055 48.4369081,103.971621 52.97516,103.067646 C57.5139193,102.163162 64.1797304,97.9442708 62.1942452,83.0276582 C60.20876,68.1110456 45.1747859,71.1244668 45.1747859,71.1244668" id="Fill-18" fill="#231F1F"></path>
                        <path d="M74.9688356,103.646434 C71.0912281,102.738391 63.1969837,101.386496 61.6372133,84.8119167 C60.0769356,68.2378462 78.2309578,70.7992796 82.7692096,71.7032551 C87.3079689,72.6077391 93.97378,76.8266303 91.9882948,91.7432429 C90.0028096,106.659855 78.846443,104.554477 74.9688356,103.646434" id="Fill-20" fill="#231F1F"></path>
                        <path d="M70.9186589,143.960589 C70.9988293,144.426304 71.2403552,144.88236 72.1602848,144.836093 C73.0802144,144.790335 74.9657404,142.808504 75.5177996,142.25534 C76.0698589,141.702684 78.8291404,139.352246 79.1970107,139.30598 C79.5648811,139.260222 81.03687,140.277067 81.68077,142.072816 C82.3241626,143.868565 83.4282811,146.186972 85.5898367,146.917067 C87.7513922,147.647162 80.6228256,135.11251 80.6228256,135.11251 L70.9186589,143.960589 Z" id="Fill-22" fill="#1F1B1C"></path>
                        <path d="M73.1722074,121.825239 C73.5400778,122.762262 72.9423519,123.172559 73.8622815,123.405417 C74.7817037,123.637766 77.4034778,125.204725 77.7713481,125.527573 C78.1392185,125.849913 80.0247444,132.854452 80.0247444,132.854452 L84.3021889,129.629019 C84.3021889,129.629019 80.9446741,122.900553 80.8066593,122.900553 C80.6686444,122.900553 73.1722074,121.825239 73.1722074,121.825239" id="Fill-24" fill="#1F1B1C"></path>
                        <path d="M80.8071159,61.5275822 C80.8071159,61.5275822 92.2572715,60.4288809 95.2352456,64.352887 C98.213727,68.2768931 99.0489196,72.8293096 100.023649,75.183815 C100.998379,77.5383204 106.707727,91.9887093 108.935753,99.9892484 C111.163779,107.989787 114.186405,113.26874 114.31072,114.681647 C114.435034,116.094045 114.349283,119.372354 113.513583,120.542743 C112.67839,121.71364 96.27949,138.127049 95.1637011,140.167858 C94.0479122,142.208158 93.3487048,148.88629 87.431827,148.293977 C81.5154567,147.702173 82.4901863,137.65625 80.2621604,137.969947 C78.0341344,138.284152 70.7929233,145.347668 70.375327,144.562663 C69.9577307,143.777659 70.0967604,134.830945 69.8181937,133.104342 C69.539627,131.377738 77.3379715,128.238228 78.0341344,128.081126 C78.7302974,127.924023 80.40119,128.86613 80.40119,128.86613 C80.40119,128.86613 80.0515863,125.429702 79.4264604,124.470817 C78.8013344,123.51244 74.8313789,122.744213 73.5780826,122.273414 C72.3247863,121.802614 71.90719,120.076011 74.9704085,120.703913 C78.0341344,121.331815 80.1226233,122.273414 81.6544863,121.802614 C83.1863493,121.331815 84.4396456,125.098719 85.2753456,127.453224 C86.1105381,129.807729 88.4781011,136.086241 88.4781011,136.086241 C88.4781011,136.086241 92.3952863,129.807729 93.7784789,126.982425 C95.1621789,124.15712 100.314394,112.855392 101.985286,112.69829 C99.89629,111.756691 92.2364678,100.612066 90.6954715,98.2575608 C89.1544752,95.9030554 86.7950307,87.740838 84.4274678,82.5610279 C82.0604122,77.3812178 80.8071159,61.5275822 80.8071159,61.5275822" id="Fill-26" fill="#231F1F"></path>
                        <path d="M80.6457096,61.8860711 C81.2591652,61.7325274 87.5297059,62.0508 90.1661948,62.7422548 C92.8026837,63.4337096 94.6755244,63.6645335 94.2756874,64.2024447 C92.3485541,64.9711798 90.3483541,67.4136423 90.0413726,69.4198781 C89.7348985,71.4261139 77.6931059,67.7095443 77.6931059,67.7095443 L77.4312837,61.6384692 L80.6457096,61.8860711 Z" id="Fill-28" fill="#282425"></path>
                        <path d="M40.9635074,128.799273 C40.9635074,128.799273 41.924537,133.332369 43.2006667,133.564719 C44.4767963,133.797068 45.2886481,133.913496 45.8686148,132.518893 C46.4485815,131.123781 48.4315296,125.968375 49.1165296,125.66078 C49.802037,125.353692 53.6238296,123.917398 53.6238296,123.917398 C53.6238296,123.917398 56.8889963,125.31251 57.7008481,125.428431 C58.5127,125.544859 58.2808148,123.4527 58.2808148,123.4527 L54.336737,121.825239 L47.1203889,121.825239 L40.9635074,128.799273 Z" id="Fill-30" fill="#1F1B1C"></path>
                        <path d="M48.9559352,113.784891 C48.9559352,113.686257 52.7391648,110.707917 52.98475,110.683512 C53.2303352,110.659108 55.097087,111.224983 55.4167537,111.249387 C55.735913,111.2743 56.809587,111.735439 57.4763204,111.960162 C58.1430537,112.184885 59.1994759,111.495972 58.9538907,111.101944 C58.7083056,110.707917 53.3039093,108.861834 53.3039093,108.861834 L49.6373833,110.659108 L47.3099056,113.513901 L48.9559352,113.784891 Z" id="Fill-32" fill="#1F1B1C"></path>
                        <path d="M42.7215726,61.3859865 C37.6170541,60.4128655 30.6402022,61.0753403 27.4836207,66.1849881 C24.3275467,71.2941274 22.1680207,76.4485164 20.5067689,79.6937783 C18.845517,82.9390401 9.70863185,97.3792606 6.22020593,104.858666 C2.73178,112.337564 1.07052815,116.728302 0.405824444,119.592247 C-0.258371852,122.455683 -0.258371852,124.555469 1.56880222,124.937294 C3.3959763,125.31912 25.3240948,128.75504 28.1483244,129.136866 C30.9725541,129.518691 37.2796281,127.991898 38.445143,129.136866 C39.6106578,130.282342 42.7672393,132.763953 44.4284911,131.23716 C46.089743,129.709858 47.966643,123.319493 49.4371096,123.364743 C50.9070689,123.409993 57.7337281,124.555469 58.8885874,123.791818 C60.0439541,123.028167 59.7268244,123.219334 58.8885874,120.355389 C58.0503504,117.491953 58.7150541,111.955738 56.8873726,111.573913 C55.0601985,111.192596 49.245817,111.383255 49.245817,111.383255 C49.245817,111.383255 52.9006726,108.645907 53.5648689,109.346513 C54.2295726,110.04712 57.8996504,111.192596 58.8885874,111.573913 C59.8775244,111.955738 59.3822948,109.875273 57.2212467,108.81572 C55.0601985,107.756167 52.4023985,106.992516 50.7411467,107.565 C49.0798948,108.137993 46.4215874,111.001429 45.5909615,112.146905 C44.7603356,113.292382 40.2753615,121.331561 40.2753615,121.331561 C40.2753615,121.331561 29.8095763,117.301294 27.6500504,116.155818 C25.4905244,115.010342 19.3549541,112.109282 18.1919763,112.300449 C21.8463244,109.437013 23.3416541,105.046274 24.3382022,103.327806 C25.3352578,101.609846 29.3219578,93.0195363 29.8202319,90.7285838 C32.4785393,88.8194567 39.2488763,83.5181335 40.5924911,84.9468012 C41.9366133,86.3749605 42.7215726,61.3859865 42.7215726,61.3859865" id="Fill-34" fill="#231F1F"></path>
                        <path d="M35.8168741,61.0065507 C30.9523593,62.852125 28.6842481,64.8939504 29.2210852,65.7394573 C29.7579222,66.5849642 31.6754148,65.2783179 36.4303296,68.505785 C41.1857519,71.7337605 41.7225889,72.3484435 41.7225889,72.3484435 C41.7225889,72.3484435 40.8021519,67.7578953 41.7225889,67.7090867 C42.6430259,67.6607865 44.7903741,72.3484435 44.7903741,72.3484435 L44.1003,66.047053 L35.8168741,61.0065507 Z" id="Fill-36" fill="#282425"></path>
                        <path d="M68.1118841,54.92246 L68.1118841,67.70929 L55.8539359,67.70929 L55.8539359,54.92246 C58.8085693,57.9770634 61.3603211,59.5567326 61.98291,59.5567326 C62.6054989,59.5567326 65.1572507,57.9770634 68.1118841,54.92246" id="Fill-38" fill="#ECC19C"></path>
                        <path d="M73.01552,71.2374383 C63.8233274,81.1308349 62.3508311,94.4977752 62.3508311,94.4977752 C62.3508311,94.4977752 60.8803644,81.1308349 51.6856348,71.2374383 C50.2765644,69.6333648 50.2562681,65.2553372 51.6526533,61.0074658 C57.7587941,58.2411381 62.5543015,58.409426 62.5543015,58.409426 C62.5543015,58.409426 67.6770867,59.0520723 73.2129015,61.5285991 C74.4423496,65.6066573 74.3667459,69.6994597 73.01552,71.2374383" id="Fill-40" fill="#ECC19C"></path>
                        <path d="M68.1118841,43.2413476 L68.1118841,56.1222358 C65.1572507,59.1768392 62.6054989,60.7565084 61.98291,60.7565084 C61.3603211,60.7565084 58.8085693,59.1768392 55.8539359,56.1222358 L55.8539359,43.2413476 L68.1118841,43.2413476 Z" id="Fill-42" fill="#BB906D"></path>
                        <path d="M78.367907,13.5794609 C77.0420515,5.68518224 72.5560626,3.94180092 61.9821996,3.94180092 C51.4088441,3.94180092 46.9223478,5.68518224 45.5964922,13.5794609 C45.1753441,16.0768331 45.0723404,18.8416355 45.1925959,21.7920123 C45.3128515,24.7673017 45.66347,27.9312159 46.1444922,31.2024074 C46.2327811,31.799804 46.3337552,32.3900827 46.4453848,32.9681593 C46.6173959,33.8594242 46.8147774,34.7283185 47.0365144,35.573317 C50.6974589,49.530536 60.6994737,57.0307871 61.9821996,57.0307871 C63.2649256,57.0307871 73.2669404,49.530536 76.9283922,35.573317 C77.1496219,34.7283185 77.3475107,33.8594242 77.5190144,32.9681593 C77.6311515,32.3900827 77.7321256,31.799804 77.819907,31.2024074 C78.3014367,27.9312159 78.6515478,24.7673017 78.7718033,21.7920123 C78.8920589,18.8416355 78.7890552,16.0768331 78.367907,13.5794609" id="Fill-44" fill="#ECC19C"></path>
                        <path d="M78.367907,13.5794609 L61.9821996,5.76754671 L45.5964922,13.5794609 C45.1753441,16.0768331 45.0723404,18.8416355 45.1925959,21.7920123 C45.3128515,24.7673017 45.66347,27.9312159 46.1444922,31.2024074 C46.2327811,31.799804 46.3337552,32.3900827 46.4453848,32.9681593 C46.6173959,33.8594242 46.8147774,34.7283185 47.0365144,35.573317 C48.1685404,36.2983277 49.6019663,36.8270873 51.3677441,36.8270873 C56.9847441,36.8270873 58.6454885,34.3170046 59.4101515,33.3693047 C60.1773515,32.424147 61.3915774,30.5684043 61.9821996,30.5684043 C62.5733293,30.5684043 63.7870478,32.424147 64.5542478,33.3693047 C65.3189107,34.3170046 66.9801626,36.8270873 72.5966552,36.8270873 C74.3629404,36.8270873 75.7958589,36.2983277 76.9283922,35.573317 C77.1496219,34.7283185 77.3475107,33.8594242 77.5190144,32.9681593 C77.6311515,32.3900827 77.7321256,31.799804 77.819907,31.2024074 C78.3014367,27.9312159 78.6515478,24.7673017 78.7718033,21.7920123 C78.8920589,18.8416355 78.7890552,16.0768331 78.367907,13.5794609" id="Fill-46" fill="#231F1F"></path>
                        <path d="M59.6338167,28.1685476 C59.6338167,30.1325844 55.7404796,34.7531296 51.5914093,34.7531296 C49.5414833,34.7531296 47.7412019,33.8638983 46.4452833,32.9680576 C46.3336537,32.389981 46.2326796,31.7997023 46.1443907,31.2023057 C45.6633685,27.9311142 45.3132574,24.7672 45.1924944,21.792419 C45.4228574,20.8126885 45.7105574,20.1639412 46.0672648,20.1639412 C53.4733833,20.3840882 59.6338167,28.1685476 59.6338167,28.1685476" id="Fill-48" fill="#F1F2F2"></path>
                        <path d="M64.3307856,28.1685476 C64.3307856,30.1325844 68.2241226,34.7531296 72.373193,34.7531296 C74.4231189,34.7531296 76.2234004,33.8638983 77.5193189,32.9680576 C77.6309485,32.389981 77.7319226,31.7997023 77.8202115,31.2023057 C78.3012337,27.9311142 78.6513448,24.7672 78.7716004,21.792419 C78.5417448,20.8126885 78.2540448,20.1639412 77.8973374,20.1639412 C70.4907115,20.3840882 64.3307856,28.1685476 64.3307856,28.1685476" id="Fill-50" fill="#F1F2F2"></path>
                        <path d="M64.9552519,37.6594769 C64.8273852,37.3198505 63.017463,35.5337617 62.2360556,35.5337617 C61.4541407,35.5337617 59.0728778,37.4469562 58.9450111,37.787091 C58.8171444,38.1267173 61.3303333,38.1201078 61.9823519,38.1201078 C62.633863,38.1201078 65.0831185,37.9991032 64.9552519,37.6594769" id="Fill-52" fill="#BB906D"></path>
                        <path d="M63.6407115,42.4252276 C63.2302189,42.4252276 62.2331633,43.332762 61.9825041,43.332762 C61.7313374,43.332762 60.7347893,42.4252276 60.3237893,42.4252276 C59.9132967,42.4252276 56.7541781,43.8025446 54.5256448,43.1415951 C55.6982633,44.2413133 55.4354263,45.1488478 56.746567,46.4412582 C58.4463819,48.2914083 61.9825041,48.2578524 61.9825041,48.2578524 C61.9825041,48.2578524 65.5181189,48.2914083 67.2179337,46.4412582 C68.5290744,45.1488478 68.2662374,44.2413133 69.4393633,43.1415951 C67.2103226,43.8025446 64.0512041,42.4252276 63.6407115,42.4252276" id="Fill-54" fill="#BE1E2D"></path>
                        <path d="M65.6051393,45.0934806 L61.9822504,45.0934806 L58.3593615,45.0934806 C58.1244319,45.0934806 58.2999948,45.534283 59.2676207,45.8083228 C59.9054319,45.9898297 61.1866356,46.0269446 61.9822504,46.0305035 C62.7778652,46.0269446 64.0590689,45.9898297 64.69688,45.8083228 C65.6645059,45.534283 65.8400689,45.0934806 65.6051393,45.0934806" id="Fill-56" fill="#E9B3B8"></path>
                        <path d="M40.7183281,58.1231332 L34.9389578,55.2429188 C34.2351837,57.9848423 33.9596615,59.0713415 32.9834096,61.9195253 C32.9834096,61.9190168 34.943017,61.7085299 37.3389948,64.0899816 C38.0295763,64.7758438 39.7715059,67.0500184 40.7183281,66.7805544 C41.6651504,66.5105819 40.7183281,58.1231332 40.7183281,58.1231332" id="Fill-58" fill="#6D6E71"></path>
                        <path d="M101.234932,190.936454 L101.23138,190.936454 C100.410395,186.424203 90.3180619,186.919406 83.1352026,191.274555 C75.7681544,195.741557 72.7612581,204.3822 73.4259619,207.593906 C72.3888211,205.588687 71.323773,203.325697 70.2521285,200.766298 L70.2521285,200.762739 C71.1502396,196.836699 73.8572581,190.57039 81.9696878,186.316417 C94.5843433,179.704889 99.6934285,183.386886 99.6934285,183.386886 C99.6934285,183.386886 99.6969804,183.390445 99.7000248,183.401122 C100.246503,185.911713 100.757969,188.43959 101.234932,190.936454" id="Fill-60" fill="#BE1E2D"></path>
                        <path d="M98.9276493,180.043092 C96.6483752,178.111085 88.0001233,178.986589 81.0821307,182.913138 C74.2783048,186.773082 69.2255419,192.592997 68.4355085,196.170258 C67.6454752,194.057254 66.9285085,192.034749 66.2815641,190.103251 C68.1990567,186.630216 72.1000048,181.748341 79.8359381,177.954491 C93.317753,171.342963 97.7895344,175.485591 97.7895344,175.485591 C98.186327,176.977811 98.5658678,178.502062 98.9276493,180.043092" id="Fill-62" fill="#BE1E2D"></path>
                        <path d="M66.5023878,74.5908925 C64.1535989,79.2983779 63.1961211,84.8778083 63.0657174,87.3212876 C62.108747,80.0010181 57.9327841,76.2910579 57.9327841,76.2910579 C58.72231,78.9485832 59.1409211,81.3224086 59.3027841,83.4379553 C61.802273,89.5441115 62.3507804,94.4976735 62.3507804,94.4976735 C62.3507804,94.4976735 62.9997544,88.6284423 66.1101619,81.7901574 C66.1086396,79.846966 66.2101211,77.4619553 66.5023878,74.5908925" id="Fill-64" fill="#BB906D"></path>
                        <g id="Group-68" stroke-width="1" fill="none">
                            <mask id="mask-8" fill="white">
                                <use xlink:href="#path-7"></use>
                            </mask>
                            <g id="Clip-67"></g>
                            <path d="M70.2374644,1.22845084 C70.2374644,1.22845084 64.587483,-2.21306217 53.6589422,2.7237219 C42.7324311,7.65999755 39.4946644,23.2812839 38.8690311,28.7417433 C38.4539719,32.3673054 27.2093163,43.4570205 25.6089533,69.4201323 C26.1929793,68.3519363 26.8150607,67.2679792 27.4838237,66.1845305 C29.8701607,62.3220435 34.4403793,61.0016698 38.7345681,61.0077709 L41.3517756,59.0518689 C42.6030422,40.8803345 44.9340719,35.2353176 53.6589422,28.7427602 C63.5305533,21.3965611 69.2744052,12.285627 69.2744052,12.285627 C69.2744052,12.285627 72.11132,9.28695008 72.3584274,6.7300925 C72.6055348,4.17374334 70.2374644,1.22845084 70.2374644,1.22845084" id="Fill-66" fill="#6D6E71" mask="url(#mask-8)"></path>
                        </g>
                        <path d="M47.1512393,75.3566787 C42.0771652,74.1623939 36.2404578,81.3377629 34.1524763,85.1483908 C36.0121244,89.2050953 43.8967281,89.7994413 43.8967281,89.7994413 C43.8967281,89.7994413 56.5626319,88.6092239 57.9326319,87.8206603 C54.8009133,82.994204 52.4049356,76.5931626 47.1512393,75.3566787" id="Fill-69" fill="#282425"></path>
                        <path d="M77.4682737,75.3566787 C82.6164293,74.1623939 88.5378737,81.3377629 90.6562996,85.1483908 C88.7697589,89.2050953 80.7704811,89.7994413 80.7704811,89.7994413 C80.7704811,89.7994413 67.9198811,88.6092239 66.5295848,87.8206603 C69.70697,82.994204 72.1379589,76.5931626 77.4682737,75.3566787" id="Fill-71" fill="#282425"></path>
                        <path d="M64.9552519,18.0133133 C48.9551741,35.9972398 38.9282963,28.25803 39.2834815,59.0953899 C39.2834815,68.0548141 45.2105074,77.4545323 49.0536111,79.7825997 C45.6910222,74.9627528 43.1286148,70.0808784 43.1286148,67.8143302 C45.6910222,71.9986487 48.1174444,71.9986487 48.1174444,71.9986487 C48.1174444,71.9986487 42.0458074,59.5850009 42.6115667,52.4716594 C44.2966667,31.268909 58.1448296,27.6748692 64.9552519,18.0133133" id="Fill-73" fill="#414042"></path>
                        <path d="M76.0311944,32.12311 C72.2784093,47.733211 73.42515,60.0990671 75.9271759,67.5672876 C76.8004241,70.1775296 78.0242907,74.0710303 79.2461278,78.0352018 C79.8408093,75.8850824 77.2631796,68.7641145 79.0330167,62.7321881 C80.524287,62.7321881 81.9348796,73.3129721 82.880687,73.3297501 C82.1251574,69.392525 83.8275093,65.930675 82.3895167,61.6960227 C84.8778426,61.6960227 88.3297352,61.7148343 94.2760426,63.4383871 C93.1627907,60.6613825 86.3346093,51.7538175 84.9438056,42.4491743 C83.5535093,33.1440227 84.1101352,22.4000349 79.2461278,12.1965005 C74.3800907,1.992966 70.2376167,1.22829832 70.2376167,1.22829832 C70.2376167,1.22829832 72.605687,4.17359081 72.3585796,6.72993997 C72.1114722,9.28679755 69.27405,12.2859828 69.27405,12.2859828 C72.6620093,13.2652049 77.4904981,25.5115816 76.0311944,32.12311" id="Fill-75" fill="#414042"></path>
                        <path d="M86.8062444,61.8855626 C86.8062444,61.8855626 83.6364704,60.4950266 81.5890815,55.0386346 C79.5422,49.5822426 80.4245815,38.2296729 80.4245815,38.2296729 C80.4245815,38.2296729 78.5537704,44.4334462 79.8953556,51.5035718 C81.2364333,58.5742058 82.389263,61.695921 82.389263,61.695921 C83.5167222,61.695921 85.0830889,61.5881354 86.8062444,61.8860711 L86.8062444,61.8855626 Z" id="Fill-77" fill="#6D6E71"></path>
                        <path d="M47.5317441,110.952366 C47.7824033,110.952366 48.7825033,110.394627 49.2858515,110.031613 C49.7891996,109.669108 51.7285107,108.065034 52.1146478,108.106725 C52.5012922,108.148924 56.7564107,109.092556 57.3850885,109.624875 C58.0137663,110.157193 58.3171959,109.395576 57.6255996,109.037138 C56.9345107,108.679209 53.1913663,107.095472 51.2596663,107.434081 C49.3274589,107.772183 47.0628996,110.241083 47.1511885,110.450045 C47.2394774,110.659515 47.5317441,110.952366 47.5317441,110.952366" id="Fill-79" fill="#282425"></path>
                        <path d="M72.9098778,120.76289 C72.9098778,120.76289 73.4086593,119.940771 74.5792481,120.047539 C75.7503444,120.154308 78.7841333,120.400385 78.7841333,120.400385 C78.7841333,120.400385 82.5064741,121.728385 82.9768407,122.397977 C83.4467,123.06757 85.0287963,126.757193 85.0287963,126.757193 C85.0287963,126.757193 83.8394333,127.076991 82.5095185,124.793665 L81.1801111,122.510847 C81.1801111,122.510847 76.0162259,121.332323 75.6437889,121.332323 C75.2713519,121.332323 72.4085593,120.930161 72.9098778,120.76289" id="Fill-81" fill="#282425"></path>
                        <path d="M83.7860033,131.720212 C83.4693811,132.152371 83.8940811,133.753394 83.6814774,134.0737 C83.4693811,134.394515 83.3090404,136.364653 82.9371107,136.846129 C82.5646737,137.327097 81.7639848,137.860941 81.7639848,137.860941 L80.3442589,137.22287 C80.2848922,136.664622 80.0311885,136.127728 79.5750293,135.81759 C79.3558293,135.671164 79.0879181,135.566429 78.9732441,135.332555 C78.8372589,135.053939 79.0285515,134.67008 79.3314737,134.614662 C79.1782367,134.548059 79.10517,134.370111 79.0950219,134.20284 C79.0808144,134.035569 79.1193774,133.868298 79.1158256,133.701027 C79.1087219,133.212432 78.7748478,132.79756 78.6043589,132.344555 C78.3257922,131.598191 78.513533,130.698282 79.0706663,130.133425 C78.8271107,129.990558 78.6109552,129.791765 78.4927293,129.537553 C78.3745033,129.282834 78.3709515,128.965578 78.5206367,128.728145 C78.6043589,128.595955 78.7433885,128.494779 78.8930737,128.453088 C80.2468367,128.710858 83.472933,129.962595 83.7860033,130.234601 C84.1584404,130.551857 84.1061774,131.288053 83.7860033,131.720212" id="Fill-83" fill="#282425"></path>
                        <path d="M47.3100578,122.290192 C48.3431393,122.088856 49.8526763,120.73696 50.6168319,121.011509 C51.3809874,121.286057 51.8427281,120.711031 51.204917,120.367337 C50.5665985,120.023643 48.6962948,119.500985 49.6375356,118.62904 C50.5787763,117.757095 51.8330874,117.758621 52.5845578,117.782516 C53.3365356,117.806412 52.6449393,116.545016 52.4176207,116.308599 C52.1908096,116.071674 52.0010393,114.53878 52.1537689,114.201187 C52.3064985,113.863086 51.9589244,112.933181 51.9589244,112.933181 C51.9589244,112.933181 52.3765207,112.315956 51.2515985,112.556948 C50.1266763,112.798449 47.1487022,114.328293 47.1487022,114.328293 C47.1487022,114.328293 46.7437911,111.962094 46.3419244,112.501022 C45.9400578,113.040458 44.368617,114.791466 44.4832911,115.429536 C44.5979652,116.067607 44.3026541,116.910063 44.70858,117.13021 C45.1145059,117.350357 45.1728578,118.570572 45.404743,119.326088 C45.6366281,120.081604 46.6225207,120.430382 46.6225207,120.721199 C46.6225207,121.011509 46.7930096,122.390859 47.3100578,122.290192" id="Fill-85" fill="#282425"></path>
                        <path d="M71.0874226,131.46356 C70.9250522,132.124001 70.6409041,133.070176 71.0874226,133.97771 C70.40293,135.489759 70.0746374,136.375432 70.8479263,136.881821 C70.3161633,138.768577 69.9553967,140.19216 70.9184559,140.796167 C70.049267,143.256424 69.6200004,141.314249 69.4170374,140.365024 C69.2140744,139.415799 69.9970041,137.776136 69.9970041,137.776136 C69.9970041,137.776136 69.3495522,137.085698 69.3835485,136.395768 C69.4170374,135.70533 70.2349781,133.97771 70.2349781,133.97771 C70.2349781,133.97771 69.6945893,132.427021 70.9184559,131.650151" id="Fill-87" fill="#1F1B1C"></path>
                        <path d="M68.1118333,162.85566 C68.1118333,162.85566 62.8048593,165.122208 61.3140963,164.250263 C59.8238407,163.378827 54.4742444,156.753571 54.4742444,156.753571 C57.4512037,162.041675 58.1235185,172.004726 58.2716815,176.831691 C58.7329148,174.34347 59.1165148,171.794239 59.3960963,169.206368 C59.3996481,169.17332 59.4026926,169.139764 59.4062444,169.106717 C59.4427778,169.121969 59.4772815,169.139764 59.5143222,169.154 L60.2957296,169.462104 C60.5306593,169.554637 60.770663,169.613614 61.0111741,169.64717 C61.3217074,171.487152 61.7164704,173.5183 62.2182963,175.740107 C63.3721407,168.057841 68.1118333,162.85566 68.1118333,162.85566" id="Fill-89" fill="#1F1B1C"></path>
                        <path d="M105.261362,115.432434 C103.695503,115.781212 102.129136,113.662615 102.129136,113.662615 C102.129136,113.662615 101.924144,113.141482 101.341133,113.108943 C99.2597474,115.168563 95.014777,124.457445 93.7787326,126.982272 C93.0277696,128.516183 91.5309178,131.065923 90.3187215,133.07826 C89.7646326,134.534382 89.4272067,135.458186 89.4272067,135.458186 C89.4272067,135.458186 99.3454993,124.974002 102.129136,122.295632 C104.913281,119.616753 110.48157,116.304379 109.611366,115.432434 C108.741162,114.560489 106.827221,115.083656 105.261362,115.432434" id="Fill-91" fill="#282425"></path>
                        <path d="M18.8315633,112.361816 L18.1917226,112.300296 C18.1917226,112.300296 16.1752856,114.79411 13.7610411,115.920266 C11.3473041,117.046422 11.8882004,117.128278 17.2575856,117.358594 C22.6269707,117.588401 39.1933152,124.052995 39.1933152,124.052995 L40.2751078,121.331917 C40.2751078,121.331917 29.8093226,117.301142 27.6497967,116.155666 C25.7561522,115.151531 20.8058856,112.797534 18.8315633,112.361816" id="Fill-93" fill="#282425"></path>
                        <path d="M18.67036,84.5443847 C18.1401193,85.3054934 10.959797,97.486792 10.6041044,98.2326481 C9.38632667,100.786964 16.1079526,92.6379651 17.6514859,91.116256 C19.8830637,88.9158028 22.9371489,88.786155 22.6210341,86.8861795 C22.3049193,84.9856956 19.8171007,82.8996374 18.67036,84.5443847" id="Fill-95" fill="#282425"></path>
                        <path d="M101.868278,82.0443688 C102.980515,83.3505066 107.523334,96.6625372 108.045456,98.7246995 C107.871415,100.002366 105.522119,95.3823289 103.608178,92.853943 C101.694237,90.3260655 100.335908,80.2455694 101.868278,82.0443688" id="Fill-97" fill="#282425"></path>
                        <path d="M105.86609,231.078609 C105.741776,230.306315 105.601731,229.615877 105.241472,228.919847 C105.159779,228.761727 105.059313,228.642248 104.947683,228.549715 C104.946668,228.4643 104.945146,228.378885 104.944639,228.294487 C105.290183,227.720986 105.633698,225.69238 105.693064,224.062377 C105.728076,223.97442 105.763087,223.885446 105.79962,223.795455 C105.954887,223.414646 105.873701,223.110609 105.675813,222.901139 C105.667187,222.801997 105.657546,222.705905 105.644861,222.617948 C105.38659,220.831859 105.024809,218.190603 104.766539,219.848061 C104.604676,220.883718 104.124161,221.908698 103.87959,223.082646 C103.485335,223.55192 102.583164,224.217954 102.491324,224.810266 C102.483713,224.860092 102.474579,224.908392 102.466461,224.958217 C101.898672,225.044141 101.350672,225.21192 100.786942,225.346652 C99.8928904,225.560698 98.7948607,225.677127 98.0312126,226.20487 C97.9297311,226.274524 97.8434719,226.352312 97.7638089,226.433152 C96.7474719,225.070579 95.7291052,223.994248 94.9994533,223.524466 C93.5523274,222.592018 86.4572496,222.330181 86.2142015,222.695737 C85.5941496,223.627675 88.5396496,228.80596 88.9531867,229.271675 C89.3667237,229.737899 90.9168533,226.475859 91.9504422,226.666009 C92.9840311,226.856668 97.1696348,231.705495 97.8414422,232.119859 C98.4883867,232.518462 101.666787,234.063051 100.614931,231.31706 C100.735694,231.330787 100.86559,231.32672 101.006142,231.29113 C101.346105,231.205715 102.940379,230.53053 103.267657,230.411051 C103.494468,231.383155 103.762887,234.40166 104.921298,234.656888 C106.175609,234.93347 106.058398,232.276962 105.86609,231.078609" id="Fill-99" fill="#1F1B1C"></path>
                        <path d="M100.547903,209.348981 C100.465703,208.094194 98.6948507,208.097753 98.6065619,209.348981 C98.4563693,211.479272 98.3543804,213.516013 97.8053656,215.592919 C97.4415544,216.971762 95.9812359,216.909226 94.8344952,216.927021 C94.2088619,216.936681 94.1312285,217.35918 93.6583248,217.518316 C93.2361619,217.660166 93.2290581,218.243327 93.6583248,218.382635 C94.4011693,218.623119 95.3769137,218.495504 96.1791248,218.576852 C97.3578322,218.696331 98.299073,218.343994 99.0571396,217.440527 C100.751373,215.422089 100.708243,211.803137 100.547903,209.348981" id="Fill-101" fill="#1F1B1C"></path>
                        <path d="M30.289127,209.655051 C30.4601233,210.080601 30.7579715,210.13246 30.9076567,210.383112 C31.0573419,210.648001 31.243053,210.885434 31.4744307,210.715621 C31.585553,210.316001 31.6987048,209.949936 31.8042456,209.624037 C30.4215604,207.103786 30.1952567,204.067486 30.06739,201.140497 C30.0313641,200.315327 28.8090196,200.310751 28.7866937,201.140497 C28.7293567,203.281973 28.8709233,205.544454 29.4843789,207.615768 C29.5538937,208.088601 30.20439,209.489305 30.289127,209.655051" id="Fill-103" fill="#1F1B1C"></path>
                        <path d="M28.0050326,210.394959 C27.9294289,210.515455 27.8289622,210.735093 27.8238881,210.895755 C27.7919215,211.833795 27.980677,212.683877 28.0862178,213.614291 C28.2252474,213.785121 28.2800474,212.168845 28.4241511,211.421972 C28.6474104,210.358861 28.3252067,209.479289 28.4241511,207.903688 C28.1841474,207.258499 28.0415659,206.5523 27.8477363,205.948294 C27.8193215,205.859828 27.3063326,204.658934 27.0952511,204.051369 C26.9760104,203.708184 26.4249659,203.745299 26.4386659,204.140851 C26.4954956,205.7917 26.9714437,207.657103 27.5610511,209.195081 C27.7122585,209.588092 27.8457067,209.999406 28.0050326,210.394959" id="Fill-105" fill="#1F1B1C"></path>
                        <path d="M28.1841981,215.774274 C28.1689759,216.085428 28.1370093,216.397092 28.0954019,216.707738 C28.1608574,216.435732 28.2187019,216.165251 28.2572648,215.892228 C28.2293574,215.856638 28.2055093,215.816473 28.1841981,215.774274" id="Fill-107" fill="#1F1B1C"></path>
                        <path d="M49.7647933,199.840409 C49.9068674,199.571454 50.0479267,199.304023 50.1884785,199.04066 C50.2742304,198.87949 50.0646711,198.70561 49.9322378,198.842375 C48.2988933,200.531864 46.9578156,202.516238 45.6436304,204.456379 C45.3950007,204.822951 45.1392674,205.177322 44.8855637,205.534743 C44.7155822,205.537794 44.5466156,205.594228 44.4060637,205.726927 C43.3816081,206.693438 42.3703452,207.702149 41.2870304,208.614768 C40.8186933,209.46485 39.9667563,210.149696 39.1777378,210.671846 C38.957523,210.817763 38.74086,210.968256 38.5262267,211.1218 C38.4891859,211.295172 38.3998822,211.457359 38.2425859,211.568703 C37.8899378,211.81783 37.5205452,212.032893 37.1521674,212.246431 C36.6041674,212.773157 36.1201007,213.363944 35.7512156,214.057941 C35.1245674,215.23799 34.8150489,216.523791 34.0696674,217.643846 C33.0376007,219.193518 30.4046637,218.905751 28.8464156,217.960593 C28.8053156,217.961101 28.764723,217.960085 28.723623,217.961101 C28.3369785,217.970253 28.0406526,217.655031 28.0010748,217.296085 C27.8148563,218.286492 27.5033081,219.256562 27.0775933,220.153928 C26.7178415,220.833689 27.408423,221.445322 27.9741822,221.295846 C28.0771859,221.475827 28.2588378,221.609034 28.4902156,221.602425 C28.9519563,221.589714 29.4121748,221.590222 29.8718859,221.596832 C29.7328563,222.223209 29.5983933,222.850602 29.490823,223.482572 C29.4400822,223.769322 29.3964452,224.058614 29.3624489,224.350449 C29.3416452,224.519245 29.3238859,224.688042 29.3086637,224.857346 C29.2553859,225.463895 30.1814044,225.551343 30.340223,224.997163 C30.6776489,223.815588 31.0668304,222.732648 31.5194378,221.650216 C32.4835119,221.696991 33.4470785,221.76512 34.4147044,221.827656 C35.7902859,221.91663 37.5799119,222.138302 38.9072896,221.675637 C39.5111044,221.46515 39.5780822,220.832673 39.3517785,220.314081 C39.1863637,219.935307 39.0026822,219.565683 38.8220452,219.194026 C38.5292711,218.796948 38.3430526,218.337334 38.2288859,217.849248 C37.8813119,216.879178 37.9888822,215.767258 38.0903637,214.743294 C38.0939156,214.713806 38.0964526,214.685334 38.099497,214.655846 C38.1390748,214.612121 38.1832193,214.571956 38.2233044,214.52874 C38.5541341,213.662388 39.6399859,212.910939 40.5436785,212.312526 C40.8425415,211.990186 41.0434748,211.683098 41.5300785,211.650051 C41.6914341,211.639374 41.8832341,211.777665 41.9111415,211.940869 C41.9420933,212.119833 41.9654341,212.299815 41.9831933,212.479797 C42.0664081,212.805696 42.1237452,213.14583 42.1516526,213.494608 C42.1171489,213.76153 42.0790933,214.028452 42.040023,214.294357 C42.0319044,216.123153 42.017697,217.853316 43.7347637,219.058786 C43.7362859,219.055735 43.7383156,219.053702 43.7398378,219.050143 C43.9037304,218.739496 44.0493563,218.427833 44.1812822,218.115662 C44.8855637,216.905108 45.0596044,215.617781 45.0829452,214.267919 C45.1707267,213.557144 45.2128415,212.832134 45.2189304,212.08221 C45.5553415,211.451258 45.85116,210.800477 46.1307415,210.140544 C46.6625044,209.21013 47.1897007,208.27565 47.6443378,207.30863 C48.1385526,206.257212 48.6809711,205.232232 49.150323,204.168103 C49.6658489,202.998222 49.849023,201.68395 50.1950748,200.456617 C50.2965563,200.096146 50.0443748,199.865322 49.7647933,199.840409" id="Fill-109" fill="#1F1B1C"></path>
                    </g>
                </g>
            </g>
            <g id="Group-2" transform="translate(29.000000, 215.000000)">
                <circle id="Oval-119" fill="#BE1E2D" cx="10" cy="10" r="10"></circle>
                <path d="M4.70710678,9.12132034 L9,12.7573593 L9,14.7573593 L4,9.82842712 L4.70710678,9.12132034 Z M15.3137085,7 L16.0208153,7.70710678 L9,14.7573593 L9,12.7573593 L15.3137085,7 Z" id="Combined-Shape" fill="#FFFFFF"></path>
            </g>
        </g>
    </g>
</svg>