<?xml version="1.0" encoding="UTF-8"?>
<svg width="20px" height="20px" viewBox="0 0 20 20" version="1.1" xmlns="http://www.w3.org/2000/svg" xmlns:xlink="http://www.w3.org/1999/xlink">
    <title>wpmudev-icon-tick</title>
    <desc>Created with Sketch.</desc>
    <defs></defs>
    <g id="Icons" stroke="none" stroke-width="1" fill="none" fill-rule="evenodd">
        <g id="wpmudev-icon-tick" fill="#00BD9C">
            <path d="M10,0 C15.5228475,0 20,4.4771525 20,10 C20,15.5228475 15.5228475,20 10,20 C4.4771525,20 0,15.5228475 0,10 C0,4.4771525 4.4771525,0 10,0 Z M6.70710678,9.29289322 C6.31658249,8.90236893 5.68341751,8.90236893 5.29289322,9.29289322 C4.90236893,9.68341751 4.90236893,10.3165825 5.29289322,10.7071068 L9,14.4142136 L14.7071068,8.70710678 C15.0976311,8.31658249 15.0976311,7.68341751 14.7071068,7.29289322 C14.3165825,6.90236893 13.6834175,6.90236893 13.2928932,7.29289322 L9,11.5857864 L6.70710678,9.29289322 Z"></path>
        </g>
    </g>
</svg>
